<mxfile host="Electron" agent="Mozilla/5.0 (Windows NT 10.0; Win64; x64) AppleWebKit/537.36 (KHTML, like Gecko) draw.io/26.2.2 Chrome/134.0.6998.178 Electron/35.1.2 Safari/537.36" version="26.2.2">
  <diagram name="Page-1" id="0_dafstdGIjNW2ZqstLy">
    <mxGraphModel dx="1139" dy="571" grid="1" gridSize="10" guides="1" tooltips="1" connect="1" arrows="1" fold="1" page="1" pageScale="1" pageWidth="850" pageHeight="1100" math="0" shadow="0">
      <root>
        <mxCell id="0" />
        <mxCell id="1" parent="0" />
        <mxCell id="6IIR00jhHCZKhghLY7iA-1" value="Controller" style="shape=umlLifeline;perimeter=lifelinePerimeter;whiteSpace=wrap;html=1;container=1;dropTarget=0;collapsible=0;recursiveResize=0;outlineConnect=0;portConstraint=eastwest;newEdgeStyle={&quot;curved&quot;:0,&quot;rounded&quot;:0};" parent="1" vertex="1">
          <mxGeometry x="290" y="70" width="100" height="700" as="geometry" />
        </mxCell>
        <mxCell id="6IIR00jhHCZKhghLY7iA-2" value="" style="html=1;points=[[0,0,0,0,5],[0,1,0,0,-5],[1,0,0,0,5],[1,1,0,0,-5]];perimeter=orthogonalPerimeter;outlineConnect=0;targetShapes=umlLifeline;portConstraint=eastwest;newEdgeStyle={&quot;curved&quot;:0,&quot;rounded&quot;:0};" parent="6IIR00jhHCZKhghLY7iA-1" vertex="1">
          <mxGeometry x="45" y="80" width="10" height="540" as="geometry" />
        </mxCell>
        <mxCell id="6IIR00jhHCZKhghLY7iA-3" style="edgeStyle=orthogonalEdgeStyle;rounded=0;orthogonalLoop=1;jettySize=auto;html=1;dashed=1;endArrow=none;startFill=0;" parent="1" source="6IIR00jhHCZKhghLY7iA-4" edge="1">
          <mxGeometry relative="1" as="geometry">
            <mxPoint x="150" y="770" as="targetPoint" />
            <Array as="points">
              <mxPoint x="150" y="760" />
              <mxPoint x="150" y="760" />
            </Array>
          </mxGeometry>
        </mxCell>
        <mxCell id="6IIR00jhHCZKhghLY7iA-4" value="Actor" style="shape=umlActor;verticalLabelPosition=bottom;verticalAlign=top;html=1;" parent="1" vertex="1">
          <mxGeometry x="140" y="40" width="30" height="60" as="geometry" />
        </mxCell>
        <mxCell id="6IIR00jhHCZKhghLY7iA-5" value="Service" style="shape=umlLifeline;perimeter=lifelinePerimeter;whiteSpace=wrap;html=1;container=1;dropTarget=0;collapsible=0;recursiveResize=0;outlineConnect=0;portConstraint=eastwest;newEdgeStyle={&quot;curved&quot;:0,&quot;rounded&quot;:0};" parent="1" vertex="1">
          <mxGeometry x="510" y="70" width="100" height="690" as="geometry" />
        </mxCell>
        <mxCell id="6IIR00jhHCZKhghLY7iA-6" value="" style="html=1;points=[[0,0,0,0,5],[0,1,0,0,-5],[1,0,0,0,5],[1,1,0,0,-5]];perimeter=orthogonalPerimeter;outlineConnect=0;targetShapes=umlLifeline;portConstraint=eastwest;newEdgeStyle={&quot;curved&quot;:0,&quot;rounded&quot;:0};" parent="6IIR00jhHCZKhghLY7iA-5" vertex="1">
          <mxGeometry x="45" y="100" width="10" height="120" as="geometry" />
        </mxCell>
        <mxCell id="6IIR00jhHCZKhghLY7iA-7" value="Database" style="shape=umlLifeline;perimeter=lifelinePerimeter;whiteSpace=wrap;html=1;container=1;dropTarget=0;collapsible=0;recursiveResize=0;outlineConnect=0;portConstraint=eastwest;newEdgeStyle={&quot;curved&quot;:0,&quot;rounded&quot;:0};" parent="1" vertex="1">
          <mxGeometry x="730" y="70" width="100" height="700" as="geometry" />
        </mxCell>
        <mxCell id="6IIR00jhHCZKhghLY7iA-8" value="" style="html=1;points=[[0,0,0,0,5],[0,1,0,0,-5],[1,0,0,0,5],[1,1,0,0,-5]];perimeter=orthogonalPerimeter;outlineConnect=0;targetShapes=umlLifeline;portConstraint=eastwest;newEdgeStyle={&quot;curved&quot;:0,&quot;rounded&quot;:0};" parent="6IIR00jhHCZKhghLY7iA-7" vertex="1">
          <mxGeometry x="45" y="120" width="10" height="100" as="geometry" />
        </mxCell>
        <mxCell id="6IIR00jhHCZKhghLY7iA-9" value="Chọn chức năng quản lý sản phẩm" style="html=1;verticalAlign=bottom;endArrow=block;curved=0;rounded=0;" parent="1" edge="1">
          <mxGeometry width="80" relative="1" as="geometry">
            <mxPoint x="150" y="150" as="sourcePoint" />
            <mxPoint x="339.5000000000001" y="150" as="targetPoint" />
            <Array as="points" />
          </mxGeometry>
        </mxCell>
        <mxCell id="6IIR00jhHCZKhghLY7iA-10" value="Kiểm tra có đang trong phiên đăng nhập" style="html=1;verticalAlign=bottom;endArrow=block;curved=0;rounded=0;" parent="1" source="6IIR00jhHCZKhghLY7iA-2" target="6IIR00jhHCZKhghLY7iA-5" edge="1">
          <mxGeometry width="80" relative="1" as="geometry">
            <mxPoint x="360" y="170" as="sourcePoint" />
            <mxPoint x="529.5000000000001" y="170" as="targetPoint" />
            <Array as="points">
              <mxPoint x="410" y="170" />
            </Array>
          </mxGeometry>
        </mxCell>
        <mxCell id="6IIR00jhHCZKhghLY7iA-11" value="Kiểm tra" style="html=1;verticalAlign=bottom;endArrow=block;curved=0;rounded=0;" parent="1" source="6IIR00jhHCZKhghLY7iA-6" edge="1">
          <mxGeometry width="80" relative="1" as="geometry">
            <mxPoint x="570" y="190" as="sourcePoint" />
            <mxPoint x="780" y="190" as="targetPoint" />
            <Array as="points">
              <mxPoint x="630" y="190" />
            </Array>
          </mxGeometry>
        </mxCell>
        <mxCell id="6IIR00jhHCZKhghLY7iA-12" value="Người dùng không trong phiên đăng nhập" style="html=1;verticalAlign=bottom;endArrow=open;dashed=1;endSize=8;curved=0;rounded=0;" parent="1" edge="1">
          <mxGeometry relative="1" as="geometry">
            <mxPoint x="779.5" y="230" as="sourcePoint" />
            <mxPoint x="560" y="230" as="targetPoint" />
          </mxGeometry>
        </mxCell>
        <mxCell id="6IIR00jhHCZKhghLY7iA-13" value="Người dùng không trong phiên đăng nhập" style="html=1;verticalAlign=bottom;endArrow=open;dashed=1;endSize=8;curved=0;rounded=0;" parent="1" edge="1">
          <mxGeometry relative="1" as="geometry">
            <mxPoint x="559.5" y="250" as="sourcePoint" />
            <mxPoint x="340" y="250" as="targetPoint" />
          </mxGeometry>
        </mxCell>
        <mxCell id="6IIR00jhHCZKhghLY7iA-14" value="Người dùng không trong phiên&lt;div&gt;đăng nhập&lt;/div&gt;" style="html=1;verticalAlign=bottom;endArrow=open;dashed=1;endSize=8;curved=0;rounded=0;" parent="1" edge="1">
          <mxGeometry relative="1" as="geometry">
            <mxPoint x="339.5" y="270" as="sourcePoint" />
            <mxPoint x="150" y="270" as="targetPoint" />
          </mxGeometry>
        </mxCell>
        <mxCell id="6IIR00jhHCZKhghLY7iA-15" value="Alternative" style="shape=umlFrame;whiteSpace=wrap;html=1;pointerEvents=0;" parent="1" vertex="1">
          <mxGeometry x="20" y="210" width="830" height="550" as="geometry" />
        </mxCell>
        <mxCell id="6IIR00jhHCZKhghLY7iA-16" value="[route to login page]" style="text;html=1;align=center;verticalAlign=middle;resizable=0;points=[];autosize=1;strokeColor=none;fillColor=none;" parent="1" vertex="1">
          <mxGeometry x="20" y="250" width="130" height="30" as="geometry" />
        </mxCell>
        <mxCell id="6IIR00jhHCZKhghLY7iA-17" value="" style="line;strokeWidth=1;fillColor=none;align=left;verticalAlign=middle;spacingTop=-1;spacingLeft=3;spacingRight=3;rotatable=0;labelPosition=right;points=[];portConstraint=eastwest;strokeColor=inherit;dashed=1;" parent="1" vertex="1">
          <mxGeometry x="20" y="325" width="830" height="8" as="geometry" />
        </mxCell>
        <mxCell id="6IIR00jhHCZKhghLY7iA-18" value="Người dùng có trong phiên đăng nhập" style="html=1;verticalAlign=bottom;endArrow=open;dashed=1;endSize=8;curved=0;rounded=0;" parent="1" source="6IIR00jhHCZKhghLY7iA-7" edge="1">
          <mxGeometry relative="1" as="geometry">
            <mxPoint x="640" y="290" as="sourcePoint" />
            <mxPoint x="560" y="290" as="targetPoint" />
          </mxGeometry>
        </mxCell>
        <mxCell id="6IIR00jhHCZKhghLY7iA-19" value="frame" style="shape=umlFrame;whiteSpace=wrap;html=1;pointerEvents=0;" parent="1" vertex="1">
          <mxGeometry x="50" y="370" width="760" height="360" as="geometry" />
        </mxCell>
        <mxCell id="6IIR00jhHCZKhghLY7iA-20" value="Tạo hóa đơn" style="html=1;verticalAlign=bottom;endArrow=block;curved=0;rounded=0;" parent="1" edge="1">
          <mxGeometry width="80" relative="1" as="geometry">
            <mxPoint x="150" y="390" as="sourcePoint" />
            <mxPoint x="339.5" y="390" as="targetPoint" />
            <Array as="points">
              <mxPoint x="230" y="390" />
            </Array>
          </mxGeometry>
        </mxCell>
        <mxCell id="6IIR00jhHCZKhghLY7iA-21" value="[Choose a&lt;div&gt;function]&lt;/div&gt;" style="text;html=1;align=center;verticalAlign=middle;resizable=0;points=[];autosize=1;strokeColor=none;fillColor=none;" parent="1" vertex="1">
          <mxGeometry x="55" y="420" width="80" height="40" as="geometry" />
        </mxCell>
        <mxCell id="6IIR00jhHCZKhghLY7iA-22" value="Hủy hóa đơn" style="html=1;verticalAlign=bottom;endArrow=block;curved=0;rounded=0;" parent="1" edge="1">
          <mxGeometry x="0.0001" width="80" relative="1" as="geometry">
            <mxPoint x="150" y="450" as="sourcePoint" />
            <mxPoint x="339.5" y="450" as="targetPoint" />
            <Array as="points">
              <mxPoint x="230" y="450" />
            </Array>
            <mxPoint as="offset" />
          </mxGeometry>
        </mxCell>
        <mxCell id="6IIR00jhHCZKhghLY7iA-23" value="Cập nhật hóa đơn" style="html=1;verticalAlign=bottom;endArrow=block;curved=0;rounded=0;" parent="1" edge="1">
          <mxGeometry width="80" relative="1" as="geometry">
            <mxPoint x="150" y="509.83" as="sourcePoint" />
            <mxPoint x="339.5" y="509.83" as="targetPoint" />
            <Array as="points">
              <mxPoint x="230" y="509.83" />
            </Array>
          </mxGeometry>
        </mxCell>
        <mxCell id="6IIR00jhHCZKhghLY7iA-24" value="Tìm kiếm hóa đơn" style="html=1;verticalAlign=bottom;endArrow=block;curved=0;rounded=0;" parent="1" edge="1">
          <mxGeometry width="80" relative="1" as="geometry">
            <mxPoint x="150" y="570" as="sourcePoint" />
            <mxPoint x="339.5" y="570" as="targetPoint" />
            <Array as="points">
              <mxPoint x="230" y="570" />
            </Array>
          </mxGeometry>
        </mxCell>
        <mxCell id="6IIR00jhHCZKhghLY7iA-25" value="Render giao diện thêm tạo HD" style="html=1;verticalAlign=bottom;endArrow=open;dashed=1;endSize=8;curved=0;rounded=0;" parent="1" edge="1">
          <mxGeometry relative="1" as="geometry">
            <mxPoint x="340" y="410" as="sourcePoint" />
            <mxPoint x="150" y="410" as="targetPoint" />
          </mxGeometry>
        </mxCell>
        <mxCell id="6IIR00jhHCZKhghLY7iA-26" value="Render giao diện hủy HD" style="html=1;verticalAlign=bottom;endArrow=open;dashed=1;endSize=8;curved=0;rounded=0;" parent="1" edge="1">
          <mxGeometry relative="1" as="geometry">
            <mxPoint x="340" y="469.76" as="sourcePoint" />
            <mxPoint x="150" y="469.76" as="targetPoint" />
          </mxGeometry>
        </mxCell>
        <mxCell id="6IIR00jhHCZKhghLY7iA-27" value="Render giao diện cập nhật HD" style="html=1;verticalAlign=bottom;endArrow=open;dashed=1;endSize=8;curved=0;rounded=0;" parent="1" edge="1">
          <mxGeometry relative="1" as="geometry">
            <mxPoint x="340" y="530" as="sourcePoint" />
            <mxPoint x="150" y="530" as="targetPoint" />
          </mxGeometry>
        </mxCell>
        <mxCell id="6IIR00jhHCZKhghLY7iA-28" value="Render giao diện tìm kiếm HD" style="html=1;verticalAlign=bottom;endArrow=open;dashed=1;endSize=8;curved=0;rounded=0;" parent="1" edge="1">
          <mxGeometry relative="1" as="geometry">
            <mxPoint x="340" y="590" as="sourcePoint" />
            <mxPoint x="150" y="590" as="targetPoint" />
          </mxGeometry>
        </mxCell>
        <mxCell id="6IIR00jhHCZKhghLY7iA-29" value="Thống kê doanh thu" style="html=1;verticalAlign=bottom;endArrow=block;curved=0;rounded=0;" parent="1" edge="1">
          <mxGeometry x="0.0001" width="80" relative="1" as="geometry">
            <mxPoint x="150" y="620" as="sourcePoint" />
            <mxPoint x="339.5" y="620" as="targetPoint" />
            <Array as="points">
              <mxPoint x="230" y="620" />
            </Array>
            <mxPoint as="offset" />
          </mxGeometry>
        </mxCell>
        <mxCell id="6IIR00jhHCZKhghLY7iA-30" value="Render giao diện thống kê doanh thu" style="html=1;verticalAlign=bottom;endArrow=open;dashed=1;endSize=8;curved=0;rounded=0;" parent="1" edge="1">
          <mxGeometry relative="1" as="geometry">
            <mxPoint x="340" y="640" as="sourcePoint" />
            <mxPoint x="150" y="640" as="targetPoint" />
          </mxGeometry>
        </mxCell>
        <mxCell id="6IIR00jhHCZKhghLY7iA-31" value="Render giao diện xuất hóa đơn" style="html=1;verticalAlign=bottom;endArrow=open;dashed=1;endSize=8;curved=0;rounded=0;" parent="1" edge="1">
          <mxGeometry relative="1" as="geometry">
            <mxPoint x="340" y="690" as="sourcePoint" />
            <mxPoint x="150" y="690" as="targetPoint" />
          </mxGeometry>
        </mxCell>
        <mxCell id="6IIR00jhHCZKhghLY7iA-32" value="Xuất hóa đơn" style="html=1;verticalAlign=bottom;endArrow=block;curved=0;rounded=0;" parent="1" edge="1">
          <mxGeometry width="80" relative="1" as="geometry">
            <mxPoint x="150" y="670" as="sourcePoint" />
            <mxPoint x="339.5" y="670" as="targetPoint" />
            <Array as="points">
              <mxPoint x="230" y="670" />
            </Array>
          </mxGeometry>
        </mxCell>
      </root>
    </mxGraphModel>
  </diagram>
</mxfile>
